
<svg
   xmlns:dc="http://purl.org/dc/elements/1.1/"
   xmlns:cc="http://creativecommons.org/ns#"
   xmlns:rdf="http://www.w3.org/1999/02/22-rdf-syntax-ns#"
   xmlns:svg="http://www.w3.org/2000/svg"
   xmlns="http://www.w3.org/2000/svg"
   xmlns:xlink="http://www.w3.org/1999/xlink"
   id="svg8"
   version="1.1"
   viewBox="0 0 185.2643 208.39722"
   height="48.74px"
   width="56px">
  <defs
     id="defs2">
    <filter
       height="1.0744137"
       y="-0.03720681"
       width="1.0846444"
       x="-0.042322222"
       id="filter3775"
       style="color-interpolation-filters:sRGB">
      <feGaussianBlur
         id="feGaussianBlur3777"
         stdDeviation="5.6587428" />
    </filter>
    <linearGradient
       gradientUnits="userSpaceOnUse"
       y2="-2622.3672"
       x2="3145.8398"
       y1="-2977.9492"
       x1="4500.0508"
       id="linearGradient1887-3"
       xlink:href="#linearGradient1877"
       gradientTransform="matrix(0.26458333,0,0,0.26458333,-898.07139,737.80953)" />
    <linearGradient
       id="linearGradient1877">
      <stop
         id="stop1873"
         offset="0"
         style="stop-color:#65004c;stop-opacity:1" />
      <stop
         id="stop1875"
         offset="1"
         style="stop-color:#f751ff;stop-opacity:1" />
    </linearGradient>
    <linearGradient
       y2="-1904.4691"
       x2="4354.9194"
       y1="-2622.3672"
       x1="3145.8398"
       gradientTransform="matrix(0.26458333,0,0,0.26458333,-898.07139,737.80953)"
       gradientUnits="userSpaceOnUse"
       id="linearGradient1938-0"
       xlink:href="#linearGradient1934" />
    <linearGradient
       id="linearGradient1934">
      <stop
         id="stop1930"
         offset="0"
         style="stop-color:#001349;stop-opacity:1" />
      <stop
         id="stop1932"
         offset="1"
         style="stop-color:#00ace7;stop-opacity:1" />
    </linearGradient>
    <linearGradient
       gradientUnits="userSpaceOnUse"
       y2="-2168.1172"
       x2="3177.8086"
       y1="-1714.7585"
       x1="3753.1509"
       id="linearGradient1952-2"
       xlink:href="#linearGradient1950"
       gradientTransform="matrix(0.26458333,0,0,0.26458333,-898.07139,737.80951)" />
    <linearGradient
       id="linearGradient1950">
      <stop
         id="stop1946"
         offset="0"
         style="stop-color:#bc1a00;stop-opacity:1" />
      <stop
         id="stop1948"
         offset="1"
         style="stop-color:#ff9800;stop-opacity:1" />
    </linearGradient>
    <linearGradient
       gradientUnits="userSpaceOnUse"
       y2="-1410.5137"
       x2="3544.4102"
       y1="-2137.6643"
       x1="4354.9194"
       id="linearGradient1936-7"
       xlink:href="#linearGradient1944"
       gradientTransform="matrix(0.26458333,0,0,0.26458333,-898.07139,737.80951)" />
    <linearGradient
       id="linearGradient1944">
      <stop
         style="stop-color:#004936;stop-opacity:1"
         offset="0"
         id="stop1940" />
      <stop
         style="stop-color:#0dc900;stop-opacity:1"
         offset="1"
         id="stop1942" />
    </linearGradient>
    <linearGradient
       gradientUnits="userSpaceOnUse"
       y2="-2346.8828"
       x2="4500.0508"
       y1="-2741.7788"
       x1="3789.4922"
       id="linearGradient1879-5"
       xlink:href="#linearGradient1899"
       gradientTransform="matrix(0.26458333,0,0,0.26458333,-898.07139,737.80951)" />
    <linearGradient
       id="linearGradient1899">
      <stop
         id="stop1895"
         offset="0"
         style="stop-color:#6d0000;stop-opacity:1" />
      <stop
         id="stop1897"
         offset="1"
         style="stop-color:#ff4100;stop-opacity:1" />
    </linearGradient>
    <filter
       height="1.0293143"
       y="-0.014657132"
       width="1.033345"
       x="-0.016672514"
       id="filter3811"
       style="color-interpolation-filters:sRGB">
      <feGaussianBlur
         id="feGaussianBlur3813"
         stdDeviation="9.5725722" />
    </filter>
  </defs>
  <metadata
     id="metadata5">
    <rdf:RDF>
      <cc:Work
         rdf:about="">
        <dc:format>image/svg+xml</dc:format>
        <dc:type
           rdf:resource="http://purl.org/dc/dcmitype/StillImage" />
        <dc:title></dc:title>
      </cc:Work>
    </rdf:RDF>
  </metadata>
  <g
     transform="translate(-11.008837,-47.001797)"
     id="layer1">
    <g
       transform="matrix(0.4782969,0,0,0.4782969,49.730985,76.712303)"
       id="g915">
      <path
         style="fill:#000000;fill-opacity:1;stroke:none;stroke-width:0.99999994px;stroke-linecap:butt;stroke-linejoin:miter;stroke-opacity:1;filter:url(#filter3811)"
         d="m 727.80099,45.390741 c 0,0 -1.1362,0.1323 -1.6328,0.1875 -0.5828,0.064 -0.8431,0.091 -2.1758,0.2519 -0.5374,0.065 -1.3042,0.1664 -1.9531,0.2481 -0.8674,0.1092 -1.7204,0.2156 -2.7832,0.3554 -0.771,0.1013 -1.7296,0.2333 -2.6016,0.3516 -1.1954,0.1621 -2.4162,0.33 -3.7968,0.5254 -1.1486,0.1625 -2.474,0.3583 -3.7481,0.5449 -1.4343,0.2102 -2.89,0.4241 -4.4805,0.666 -1.4048,0.214 -2.9468,0.4596 -4.4707,0.6993 -1.7147,0.2694 -3.4788,0.5498 -5.3418,0.8535 -1.6883,0.2751 -3.4833,0.5765 -5.291,0.8808 -1.9992,0.3368 -4.0635,0.6909 -6.2051,1.0645 -1.9144,0.3341 -3.9038,0.6901 -5.9296,1.0547 -2.2738,0.4092 -4.634,0.8439 -7.045,1.2929 -2.184,0.4069 -4.4131,0.8289 -6.707,1.2696 -2.397,0.4604 -4.8938,0.9527 -7.4082,1.4511 -3.2812,0.6508 -6.5556,1.2977 -10.0312,2.0157 -0.4258,0.088 -0.8409,0.1729 -1.2696,0.2617 -1.5406,0.3197 -3.1219,0.653 -4.6992,0.9863 -1.3023,0.2752 -2.6026,0.5514 -3.9297,0.836 -1.4185,0.3042 -2.8604,0.6167 -4.3066,0.9316 -1.3285,0.2891 -2.6639,0.5804 -4.0157,0.8789 -1.5882,0.3507 -3.1984,0.7105 -4.8183,1.0742 -1.3407,0.3009 -2.6906,0.606 -4.0527,0.916 -1.6583,0.3776 -3.3319,0.7614 -5.0215,1.1524 -1.2503,0.2891 -2.5141,0.586 -3.7813,0.8828 -1.9071,0.4467 -3.8266,0.8974 -5.7715,1.3613 -1.1546,0.2755 -2.3225,0.5582 -3.4902,0.8399 -1.9517,0.4704 -3.9145,0.9456 -5.9023,1.4336 -1.3661,0.3352 -2.7518,0.6816 -4.1348,1.0253 -1.8831,0.4679 -3.7677,0.9364 -5.6816,1.42 -1.3335,0.3367 -2.691,0.6867 -4.0391,1.0312 -2.0798,0.5316 -4.1571,1.0613 -6.2715,1.6113 -1.1723,0.3051 -2.3681,0.6231 -3.5508,0.9336 -2.2687,0.5961 -4.5352,1.1912 -6.8418,1.8086 -0.9416,0.2521 -1.9057,0.5159 -2.8535,0.7715 -2.6159,0.7056 -5.2339,1.4132 -7.8965,2.1465 -6.8503,1.8867 -13.8584,3.8688 -21.0058,5.9453 -0.1584,0.046 -0.3122,0.089 -0.4707,0.1348 -2.8714,0.8352 -5.784,1.6997 -8.7012,2.5664 -0.8431,0.2506 -1.6726,0.491 -2.5195,0.7441 -2.6358,0.788 -5.3088,1.604 -7.9805,2.418 -1.2487,0.3804 -2.4859,0.7505 -3.7422,1.1367 -2.3405,0.7195 -4.7114,1.4636 -7.0781,2.2031 -1.657,0.5178 -3.307,1.0289 -4.9766,1.5567 -2.252,0.7119 -4.5282,1.4436 -6.8027,2.173799 -1.7345,0.5569 -3.4655,1.1121 -5.2129,1.6797 -2.3083,0.7499 -4.6364,1.5161 -6.9668,2.2851 -1.8043,0.5953 -3.6086,1.1921 -5.4258,1.7989 -2.3538,0.786 -4.7227,1.5869 -7.0976,2.3926 -1.7096,0.5798 -3.4222,1.1619 -5.1426,1.7519 -2.5263,0.8665 -5.0662,1.7461 -7.6153,2.6348 -1.6422,0.5725 -3.2899,1.1485 -4.9414,1.7304 -2.5883,0.912 -5.1862,1.8346 -7.7968,2.7696 -1.7475,0.6258 -3.5025,1.2601 -5.2598,1.8965 -2.4427,0.8844 -4.8923,1.7746 -7.3535,2.6796 -2.0539,0.7552 -4.1192,1.5235 -6.1856,2.293 -2.2882,0.8521 -4.5758,1.7063 -6.8789,2.5762 -2.0104,0.7593 -4.035,1.5338 -6.0566,2.3066 -2.5041,0.9575 -5.0066,1.9141 -7.5274,2.8926 -1.7613,0.6837 -3.5354,1.386 -5.3046,2.0801 -2.7293,1.0708 -5.4574,2.1386 -8.2051,3.2344 -1.5294,0.6099 -3.0725,1.2397 -4.6074,1.8574 -3.0206,1.2156 -6.0386,2.4277 -9.0801,3.6738 -1.2532,0.5135 -2.5187,1.0458 -3.7754,1.5645 -3.2349,1.3352 -6.4695,2.669 -9.7266,4.039 -1.2165,0.5117 -2.4465,1.0439 -3.666,1.5606 -7.3695,3.1217 -14.7852,6.3233 -22.2578,9.6269 -0.4037,0.1784 -0.803,0.3504 -1.207,0.5293 -2.8431,1.2599 -5.7056,2.5551 -8.5625,3.8418 -1.9465,0.8766 -3.8854,1.7417 -5.8379,2.6309 -2.5776,1.1738 -5.1699,2.3763 -7.7578,3.5722 -2.1071,0.9737 -4.2106,1.9393 -6.3243,2.9278 -2.7677,1.2943 -5.5476,2.6158 -8.3261,3.9355 -1.9735,0.9374 -3.9432,1.8701 -5.9219,2.8203 -2.746,1.3189 -5.5021,2.6619 -8.2578,4.0059 -2.0655,1.0074 -4.1306,2.0135 -6.2012,3.0352 -2.6842,1.3243 -5.376,2.6691 -8.0683,4.0175 -2.1591,1.0814 -4.3185,2.1649 -6.4825,3.2618 -2.6391,1.3376 -5.2836,2.6916 -7.9297,4.0527 -2.2578,1.1613 -4.5167,2.3293 -6.7793,3.5078 -8.355,4.3517 -16.7358,8.801 -25.1484,13.3906 -0.034,0.019 -0.069,0.038 -0.1035,0.057 -4.5736,2.4956 -9.1567,5.0303 -13.7441,7.5976 -0.2601,0.1455 -0.5195,0.2899 -0.7793,0.4356 -4.5503,2.5501 -9.1064,5.1361 -13.668,7.7578 -0.2052,0.1179 -0.4098,0.2371 -0.6152,0.3554 -4.519,2.6001 -9.0443,5.2351 -13.5723,7.9063 -0.3417,0.2014 -0.6836,0.4035 -1.0254,0.6055 -4.5638,2.6975 -9.1305,5.4303 -13.7012,8.2011 -0.1886,0.1146 -0.3776,0.2293 -0.5664,0.3438 -2.2291,1.3527 -4.4591,2.7117 -6.6894,4.082 -0.067,0.041 -0.1339,0.084 -0.2012,0.125 -2.3413,1.4391 -4.683,2.8871 -7.0254,4.3457 -0.019,0.011 -0.034,0.024 -0.053,0.035 -2.3825,1.4837 -4.7652,2.9765 -7.1485,4.4804 -9.5938,6.0544 -19.1944,12.2749 -28.789,18.6641 -2.2509,1.4989 -4.5017,3.0098 -6.752,4.5274 -0.1478,0.1001 -0.2955,0.197 -0.4433,0.2968 l -0.02,0.016 -62.878904,45.082 c 0,0 -0.1671,1.2376 -0.3945,3.1211 -0.042,0.3526 -0.097,0.8308 -0.1445,1.2441 -0.091,0.7864 -0.1884,1.6528 -0.2969,2.6563 -0.054,0.5042 -0.1137,1.0918 -0.1719,1.6504 -0.1198,1.151 -0.2464,2.435 -0.3789,3.8144 -0.07,0.7298 -0.1423,1.5018 -0.2148,2.2949 -0.1316,1.4353 -0.2683,3.0188 -0.4063,4.6602 -0.077,0.9225 -0.1558,1.8467 -0.2344,2.834 -0.15,1.8867 -0.3005,3.9549 -0.4511,6.0761 -0.069,0.9641 -0.1371,1.8785 -0.2051,2.8907 -0.1758,2.6148 -0.3481,5.443 -0.5156,8.3769 -0.039,0.6788 -0.079,1.2867 -0.1172,1.9824 -0.2083,3.7989 -0.4075,7.8339 -0.5879,12.1348 v 0.1504 c -0.1743,4.1688 -0.3315,8.5971 -0.4668,13.2305 -0.1006,3.4406 -0.1845,7.0187 -0.2578,10.7129 -0.019,1.0207 -0.041,2.0498 -0.059,3.0898 -0.066,3.8695 -0.1159,7.8637 -0.1465,11.9981 -0.011,1.051 -0.012,2.1349 -0.016,3.2031 -0.023,4.3336 -0.03,8.7651 0,13.3769 0,0.011 -10e-5,0.01 0,0.014 0.019,3.094 0.044,6.2485 0.084,9.4668 0.039,3.1647 0.091,6.3937 0.1542,9.6777 0,0.254 0.012,0.515 0.016,0.7696 0.06,3.0321 0.1293,6.1116 0.2109,9.2441 0.011,0.3877 0.022,0.7827 0.033,1.1719 0.08,2.9608 0.1694,5.9646 0.2695,9.0137 0.019,0.6117 0.043,1.2283 0.062,1.8437 0.095,2.7815 0.1995,5.6053 0.3125,8.459 0.034,0.8844 0.069,1.7689 0.1055,2.6601 0.1134,2.7476 0.238,5.5346 0.3692,8.3477 0.041,0.887 0.08,1.7665 0.123,2.6602 0.1546,3.2052 0.3236,6.4537 0.502,9.7421 0.023,0.4413 0.044,0.8736 0.068,1.3165 0.088,1.6084 0.1912,3.2672 0.2852,4.8945 0,0 -0.01,0 -0.01,0.01 0.1319,2.282 0.2562,4.5419 0.4003,6.8633 0.251,4.0376 0.5206,8.1357 0.8086,12.2891 0,0.034 8e-4,0.068 0.012,0.1035 v 0.021 l 12.0605,118.2012 c 0.8811,6.6313 1.7941,13.3253 2.7676,20.1386 0,0 0.01,0 0.01,-0.01 0,0 0,0 0,0 0,0 -0.01,0.01 -0.01,0.01 0.043,0.3012 0.09,0.6105 0.1328,0.9121 243.149504,80.2533 475.767304,166.1818 686.754004,269.8691 0,0 0,0 0,0 54.0245,26.5499 106.6215,54.27406 157.6231,83.35546 -0.032,0.053 -0.062,0.1069 -0.094,0.1602 -0.2414,-0.134 -0.4832,-0.2726 -0.7246,-0.4063 0,0 -2.7718,5.5308 -7.4121,13.7891 -24.5701,39.3347 -53.4912,76.4255 -84.5723,110.8945 -344.1366,-103.1495 -347.1042,-102.2587 -718.535104,-302.03906 0.2311,1.1424 0.4364,2.1266 0.6582,3.211 -0.645,-0.3469 -1.179,-0.6324 -1.8262,-0.9805 9.3836,46.3754 10.805604,43.7163 24.718704,95.8906 0,0 50.7604,215.69096 302.5938,443.95896 12.6903,11.1945 25.7726,22.2454 39.2891,33.1133 39.2729,33.9531 79.5768,64.1923 116.75,89.9297 46.8906,32.2515 98.405,64.0195 155.0019,94.7109 0.01,0 0.014,-0.01 0.021,-0.012 0,0 8e-4,-0.012 0.037,-0.012 197.7346,-85.6529 340.73921,-233.0523 418.66801,-327.3711 23.1016,-26.5559 43.6106,-52.4416 61.7773,-77.2891 0.3669,-0.4458 0.7404,-0.8921 1.1055,-1.3379 1.6302,-2.2373 3.2395,-4.4655 4.832,-6.6855 0.3688,-0.5141 0.7289,-1.0239 1.0957,-1.5371 1.2103,-1.6934 2.415,-3.3835 3.6035,-5.0664 0.5149,-0.729 1.0205,-1.4528 1.5313,-2.1797 1.0033,-1.428 2.0044,-2.8552 2.9922,-4.2754 0.578,-0.8311 1.148,-1.658 1.7207,-2.4863 0.9388,-1.3579 1.8742,-2.714 2.7988,-4.0645 0.5623,-0.8212 1.1187,-1.6386 1.6758,-2.457 0.862,-1.2666 1.7207,-2.5312 2.5703,-3.791 0.6956,-1.0316 1.3849,-2.059 2.0723,-3.086 0.51,-0.762 1.0159,-1.5217 1.5214,-2.2812 2.3635,-3.5509 4.6801,-7.0749 6.9454,-10.5684 0.3514,-0.5419 0.6977,-1.0805 1.0468,-1.6211 2.2288,-3.4512 4.4183,-6.8792 6.5528,-10.2714 0.3334,-0.5299 0.6591,-1.0537 0.9902,-1.5821 2.2038,-3.5166 4.3704,-7.0091 6.4746,-10.459 0.079,-0.1291 0.1519,-0.2538 0.2305,-0.3828 1.9966,-3.2766 3.9392,-6.5166 5.8476,-9.7304 0.3364,-0.5664 0.68,-1.1368 1.0137,-1.7012 1.59,-2.6898 3.1271,-5.3407 4.6563,-7.9844 1.4765,-2.5524 2.9131,-5.0718 4.3339,-7.5801 0.7087,-1.2513 1.4281,-2.5099 2.1231,-3.75 1.5593,-2.7818 3.0692,-5.5219 4.5605,-8.2461 0.4847,-0.8855 0.9853,-1.7847 1.4629,-2.664 1.9395,-3.5702 3.8261,-7.0913 5.6504,-10.5567 0,-0.01 0.01,-0.016 0.012,-0.023 7.659,-14.549 14.3049,-28.1383 20.0703,-40.6582 0.07,-0.152 0.1373,-0.2995 0.2071,-0.4512 22.0993,-48.06856 31.0408,-80.04626 32.9844,-87.53506 0.2721,-1.1868 0.4238,-1.8848 0.4238,-1.8848 13.5749,-50.9055 24.7774,-99.1124 34.0312,-144.502 0.2268,-1.577 0.4613,-3.1416 0.6797,-4.7265 0,0 -366.081,-240.4936 -820.11911,-389.6836 l -22.7188,-8.0137 c 65.7137,-22.8917 135.9656,-41.0648 209.5801,-51.1523 3.7265,-0.5096 7.4227,-1.0045 11.1367,-1.5078 7.0684,2.4483 14.1469,4.96 21.2344,7.5214 l 80.0859,31.0196 c 244.97021,100.9273 480.88061,250.3358 541.78911,293.1504 0.071,-0.4831 0.1369,-0.9573 0.207,-1.4395 0.6612,0.4613 1.4497,1.0004 2.0743,1.4395 2.9178,-19.9497 5.1999,-46.3467 7.0878,-73.4063 19.5434,-179.191 5.211,-279.8945 5.211,-279.8945 0,0 -0.01,0 -0.01,-0.01 0.01,0 0.013,0 0.02,0 -5.4967,-4.1849 -11.0038,-8.3056 -16.5176,-12.3711 -0.1255,-0.093 -0.2514,-0.1829 -0.3769,-0.2754 -2.5434,-1.8739 -5.0884,-3.7351 -7.6348,-5.5839 -0.3464,-0.2515 -0.6926,-0.501 -1.0391,-0.752 -2.2857,-1.6563 -4.5734,-3.3033 -6.8613,-4.9394 -0.6237,-0.4461 -1.2472,-0.8895 -1.8711,-1.334 -2.1235,-1.5132 -4.2479,-3.0196 -6.373,-4.5157 -0.53,-0.373 -1.0598,-0.7451 -1.5899,-1.1171 -2.239,-1.5715 -4.4783,-3.1331 -6.7187,-4.6856 -0.4556,-0.3157 -0.9115,-0.6304 -1.3672,-0.9453 -2.3261,-1.6077 -4.6513,-3.2056 -6.9785,-4.793 -0.3678,-0.2508 -0.7357,-0.5016 -1.1035,-0.7519 -2.4443,-1.6638 -4.8888,-3.3174 -7.334,-4.959 -0.2563,-0.172 -0.5133,-0.3439 -0.7696,-0.5156 -2.6781,-1.7953 -5.3563,-3.5788 -8.0351,-5.3477 -0.053,-0.035 -0.1067,-0.07 -0.1602,-0.1055 -38.0026,-25.0869 -76.0439,-47.504 -113.5293,-67.5625 -1.7986,-0.9623 -3.5946,-1.9177 -5.3906,-2.8691 -3.5154,-1.8625 -7.0249,-3.7044 -10.5293,-5.5254 -1.5732,-0.8174 -3.1459,-1.6304 -4.7168,-2.4394 -3.8741,-1.9957 -7.7388,-3.9647 -11.5976,-5.9102 -1.2021,-0.606 -2.405,-1.2133 -3.6055,-1.8144 -5.0428,-2.5255 -10.0708,-5.0099 -15.084,-7.4512 -0.061,-0.03 -0.121,-0.058 -0.1816,-0.088 C 932.51789,66.617041 728.32829,45.436841 727.86309,45.388741 h -0.061 z"
         id="path1746"
         transform="matrix(0.26458333,0,0,0.26458333,-80.958448,-62.117287)" />
      <path
         style="fill:url(#linearGradient1879-5);fill-opacity:1;stroke:none;stroke-width:0.26458332px;stroke-linecap:butt;stroke-linejoin:miter;stroke-opacity:1"
         d="m 257.83847,12.436833 c -5.2571,0.0156 -8.784,0.23307 -8.784,0.23307 l -144.3317,13.74643 c 77.3147,23.59345 164.6403,78.616177 184.1443,92.326167 8.7039,-59.512087 3.8576,-93.477507 3.8576,-93.477507 -5.5327,-4.2124 -11.1021,-8.193 -16.6801,-11.95689 -6.6038,-0.71543 -13.1919,-0.88625 -18.2061,-0.87127 z"
         id="path1746-8" />
      <path
         style="fill:url(#linearGradient1936-7);fill-opacity:1;stroke:none;stroke-width:0.26458332px;stroke-linecap:butt;stroke-linejoin:miter;stroke-opacity:1"
         d="m 173.59147,172.27461 c -19.05,83.60835 -133.713328,143.53907 -133.713328,143.53907 10.3909,8.98342 21.0547,16.98421 30.8901,23.7939 12.4065,8.5332 26.0363,16.93849 41.010928,25.05889 0,0 0,-0.003 0.01,-0.003 72.0703,-33.63788 119.855,-92.62025 141.2767,-128.35961 0.8364,-1.49236 1.2639,-2.32958 1.2639,-2.32958 -11.1125,-12.1708 -80.734,-61.69958 -80.734,-61.69958 z"
         id="path1754-60" />
      <path
         style="fill:url(#linearGradient1952-2);fill-opacity:1;stroke:none;stroke-width:0.26458332px;stroke-linecap:butt;stroke-linejoin:miter;stroke-opacity:1"
         d="m -57.118558,164.21723 c 2.4828,12.27016 2.859,11.56661 6.54019,25.37106 0,0 13.43031,57.06825 80.06121,117.46416 3.3577,2.96188 6.819,5.88576 10.3953,8.76123 C 113.93217,276.92583 133.08177,244.15811 133.08177,244.15811 41.936042,216.83832 41.189442,217.09385 -57.118558,164.21723 Z"
         id="path1756-0" />
      <path
         style="fill:url(#linearGradient1938-0);fill-opacity:1;stroke:none;stroke-width:0.26458332px;stroke-linecap:butt;stroke-linejoin:miter;stroke-opacity:1"
         d="m 57.112242,44.065923 c 0,0 -71.95561,26.07643 -122.699,72.852907 0.011,0.0797 0.024,0.16154 0.035,0.24133 114.3703,37.74879 219.934428,80.24326 300.189928,145.44694 1.5821,-1.78781 3.1019,-3.57846 4.5667,-5.36709 26.0777,-35.78982 33.8278,-63.32304 34.8128,-67.1184 0.072,-0.31401 0.1122,-0.4987 0.1122,-0.4987 3.5917,-13.46875 6.5557,-26.22346 9.0041,-38.23278 0.06,-0.41726 0.122,-0.83125 0.1798,-1.25058 0,0 -101.8475,-66.915297 -226.201728,-106.073627 z"
         id="path1750-6" />
      <path
         style="fill:#ffffff;fill-opacity:0.09865471;stroke:none;stroke-width:0.26458332px;stroke-linecap:butt;stroke-linejoin:miter;stroke-opacity:1"
         d="M -7.6088676,75.121393 C -26.825358,86.277213 -47.545868,100.2883 -65.586758,116.91885 c 0.011,0.0797 0.024,0.16152 0.035,0.24132 114.3704,37.74878 219.934628,80.24325 300.190028,145.44693 1.5821,-1.78781 3.1018,-3.57848 4.5667,-5.36709 14.2104,-19.50289 22.9699,-36.54208 28.1667,-48.63632 C 192.31857,150.10403 96.411342,110.23101 -7.6089676,75.121393 Z"
         id="path1750-2-4" />
      <path
         style="fill:#ffffff;fill-opacity:0.161435;stroke:none;stroke-width:0.26458332px;stroke-linecap:butt;stroke-linejoin:miter;stroke-opacity:1"
         d="m 203.78507,239.17328 c -25.1468,39.90617 -53.2104,58.20238 -129.208108,103.01388 11.3759,7.64601 23.7465,15.17644 37.207508,22.47614 0,0 5e-4,-0.003 0.01,-0.003 65.1985,-28.2421 107.9345,-81.87812 122.8437,-102.05321 -19.0479,-14.57179 -30.8531,-23.4338 -30.8531,-23.4338 z"
         id="path1754-6-3" />
      <path
         style="fill:#ffffff;fill-opacity:0.13452914;stroke:none;stroke-width:0.26458332px;stroke-linecap:butt;stroke-linejoin:miter;stroke-opacity:1"
         d="m -56.809558,163.62728 c 2.4828,12.27016 2.859,11.56664 6.54019,25.37109 0,0 1.7487,7.42683 7.10961,19.75436 70.0608,37.44489 68.0007,53.3378 136.8665,74.00531 28.558228,-20.6334 39.683928,-39.18988 39.683928,-39.18988 C 42.245042,216.24837 41.498442,216.50391 -56.809558,163.62728 Z"
         id="path1756-1-7" />
      <path
         style="fill:#ffffff;fill-opacity:0.103139;stroke:none;stroke-width:0.26458332px;stroke-linecap:butt;stroke-linejoin:miter;stroke-opacity:1"
         d="m 175.98307,19.687053 -70.6567,6.72931 c 77.3147,23.59345 164.6403,78.616147 184.1443,92.326137 1.9353,-13.23188 2.8237,-37.166177 3.6215,-47.779757 -24.0366,-15.38684 -68.9546,-30.22475 -117.1091,-51.27569 z"
         id="path1746-5-5" />
      <path
         style="fill:url(#linearGradient1887-3);fill-opacity:1;stroke:none;stroke-width:0.26458332px;stroke-linecap:butt;stroke-linejoin:miter;stroke-opacity:1"
         d="m 111.76347,-50.051757 c 0,0 -0.3006,0.035 -0.432,0.0496 -0.1542,0.0169 -0.2231,0.0241 -0.5757,0.0666 -0.1422,0.0172 -0.3451,0.044 -0.5168,0.0656 -0.2295,0.0289 -0.4547,0.0571 -0.7359,0.0941 -0.204,0.0268 -0.4581,0.0617 -0.6888,0.093 -0.3163,0.0429 -0.6393,0.0873 -1.0046,0.13901 -0.3039,0.043 -0.6541,0.0948 -0.9912,0.14417 -0.3795,0.0556 -0.7651,0.11221 -1.1859,0.17621 -0.3717,0.0566 -0.7797,0.12163 -1.1829,0.18503 -0.4537,0.0713 -0.92,0.14547 -1.4129,0.22582 -0.4467,0.0728 -0.9221,0.15251 -1.40033,0.23304 -0.529,0.0891 -1.0752,0.18281 -1.641798,0.28165 -0.5066,0.0884 -1.0329,0.18259 -1.5689,0.27906 -0.6016,0.10827 -1.2261,0.22326 -1.864,0.34208 -0.5778,0.10766 -1.1676,0.21931 -1.7745,0.33591 -0.6342,0.12182 -1.2949,0.25205 -1.9601,0.38394 -0.8682,0.17219 -1.7345,0.34335 -2.6541,0.53332 -0.1127,0.0233 -0.2225,0.0457 -0.3359,0.0692 -0.4076,0.0846 -0.8261,0.17278 -1.2434,0.26096 -0.3445,0.0728 -0.6886,0.14589 -1.0397,0.22119 -0.3753,0.0805 -0.7568,0.16317 -1.1395,0.24649 -0.3515,0.0765 -0.7048,0.15356 -1.0624,0.23254 -0.4203,0.0928 -0.8463,0.18799 -1.2749,0.28422 -0.3547,0.0796 -0.7119,0.16033 -1.0723,0.24236 -0.4387,0.0999 -0.8815,0.20145 -1.3286,0.3049 -0.3308,0.0765 -0.6651,0.15505 -1.0004,0.23358 -0.5046,0.11818 -1.0125,0.23743 -1.5271,0.36017 -0.3055,0.0729 -0.6145,0.14772 -0.9234,0.22223 -0.5164,0.12448 -1.0358,0.25019 -1.5617,0.3793 -0.3614,0.0887 -0.7281,0.18037 -1.094,0.27131 -0.4982,0.12379 -0.9968,0.24773 -1.5032,0.37568 -0.3528,0.0891 -0.712,0.18169 -1.0687,0.27284 -0.5503,0.14065 -1.0999,0.2808 -1.6593,0.42632 -0.3102,0.0807 -0.6266,0.16484 -0.9395,0.24701 -0.6003,0.1577 -1.2,0.31518 -1.8102,0.47853 -0.2492,0.0667 -0.5043,0.1365 -0.755,0.20413 -0.6922,0.18669 -1.3848,0.37391 -2.0893,0.56792 -1.8125,0.49919 -3.6667,1.02362 -5.5578,1.57303 -0.042,0.0122 -0.083,0.0236 -0.1246,0.0357 -0.7597,0.22098 -1.5303,0.44971 -2.3022,0.67903 -0.223,0.0663 -0.4425,0.12991 -0.6666,0.19688 -0.6974,0.20849 -1.4046,0.42439 -2.1115,0.63976 -0.3304,0.10065 -0.6577,0.19857 -0.9901,0.30075 -0.6192,0.19037 -1.2466,0.38724 -1.8728,0.5829 -0.4384,0.137 -0.8749,0.27223 -1.3167,0.41188 -0.5958,0.18836 -1.1981,0.38195 -1.7999,0.57514 -0.4589,0.14736 -0.9169,0.29425 -1.3792,0.44443 -0.6107,0.19841 -1.2267,0.40116 -1.8433,0.60463 -0.4774,0.15749 -0.9548,0.31537 -1.4356,0.47593 -0.6227,0.20796 -1.2495,0.41988 -1.8779,0.63304 -0.4523,0.15341 -0.9054,0.30742 -1.3606,0.46352 -0.6685,0.22927 -1.3404,0.46199 -2.0149,0.69713 -0.4345,0.15146 -0.8704,0.3039 -1.3074,0.45785 -0.6848,0.24129 -1.3722,0.48539 -2.0629,0.73278 -0.4624,0.16556 -0.9267,0.33342 -1.3917,0.50178 -0.6463,0.23401 -1.2944,0.46954 -1.9456,0.70899 -0.5434,0.19979 -1.0898,0.40308 -1.6366,0.60667 -0.6054,0.22545 -1.2107,0.45146 -1.82,0.68161 -0.5319,0.20091 -1.0676,0.4058 -1.6025,0.6103 -0.6626,0.25334 -1.3247,0.50643 -1.9916,0.76533 -0.466,0.18089 -0.9355,0.36671 -1.4036,0.55036 -0.7221,0.28331 -1.4439,0.56583 -2.1709,0.85576 -0.4046,0.16138 -0.8129,0.32802 -1.219,0.49144 -0.7992,0.32163 -1.5977,0.64234 -2.4025,0.97204 -0.3315,0.13586 -0.6664,0.27669 -0.9989,0.41394 -0.8559,0.35327 -1.7117,0.70617 -2.5734,1.06865 -0.3219,0.13539 -0.6474,0.27622 -0.97,0.4129 -1.9499,0.82598 -3.9119996,1.67304 -5.8890996,2.54712 -0.1068,0.0472 -0.2124,0.0927 -0.3193,0.14005 -0.7523,0.33334 -1.5096,0.67604 -2.2655,1.01647 -0.515,0.23194 -1.028,0.46082 -1.5446,0.69609 -0.682,0.31058 -1.3679,0.62875 -2.0526,0.94518 -0.55750002,0.25761 -1.11400002,0.51308 -1.67331002,0.77462 -0.7323,0.34245 -1.46779998,0.6921 -2.20299998,1.04127 -0.5221,0.24802 -1.0433,0.49477 -1.5668,0.7462 -0.72659,0.34896 -1.4558,0.7043 -2.1849,1.0599 -0.5465,0.26654 -1.0928,0.53274 -1.6407,0.80306 -0.7102,0.35039 -1.4224,0.7062 -2.1348,1.06296 -0.5712004,0.2861 -1.1425004,0.5728 -1.7151004,0.86302 -0.6983,0.35391 -1.3979,0.71215 -2.0981,1.07228 -0.5973,0.30726 -1.195,0.61629 -1.7936,0.9281 -2.2106,1.15139 -4.4281,2.3286 -6.6539,3.54293 -0.01,0.005 -0.018,0.0101 -0.027,0.0151 -1.21008,0.6603 -2.42269,1.33094 -3.63649,2.0102 -0.069,0.0385 -0.1374,0.0767 -0.2061,0.11525 -1.204,0.67472 -2.40939,1.35893 -3.61639,2.05259003 -0.054,0.0312 -0.1084,0.0628 -0.1627,0.0941 -1.1957,0.68794 -2.393,1.38509 -3.59101,2.09184997 -0.09,0.0533 -0.18089,0.10676 -0.2714,0.1602 -1.2075,0.71372 -2.4157,1.43677 -3.625,2.16988 -0.05,0.0303 -0.1,0.0607 -0.1499,0.091 -0.58979,0.3579 -1.1798,0.71747 -1.7699,1.08003 -0.018,0.0109 -0.035,0.0222 -0.053,0.0331 -0.6195,0.38076 -1.239,0.76387 -1.8588,1.1498 0,0.003 -0.01,0.006 -0.014,0.009 -0.6304,0.39256 -1.2608,0.78753 -1.8913,1.18546 -2.53841,1.60187 -5.07861,3.24773 -7.61721,4.93821 -0.59549,0.39658 -1.19099,0.79632 -1.78639,1.19785 -0.039,0.0265 -0.078,0.0522 -0.1173,0.0786 l -0.01,0.004 -16.6367,11.92794 c 0,0 -0.044,0.32745 -0.1044,0.8258 -0.011,0.0933 -0.026,0.21979 -0.038,0.32916 -0.024,0.20807 -0.05,0.43733 -0.079,0.70282 -0.014,0.1334 -0.03,0.28887 -0.045,0.43666 -0.032,0.30454 -0.065,0.64427 -0.1003,1.00923 -0.018,0.19309 -0.038,0.39733 -0.057,0.60719 -0.035,0.37976 -0.071,0.79873 -0.1075,1.23302 -0.02,0.24407 -0.041,0.4886 -0.062,0.74982 -0.04,0.49919 -0.08,1.0464 -0.1193,1.60764 -0.018,0.25506 -0.036,0.49702 -0.054,0.76483 -0.046,0.69183 -0.092,1.44013 -0.1364,2.21639 -0.01,0.1796 -0.021,0.34044 -0.031,0.52451 -0.055,1.00512 -0.1079,2.07272 -0.1556,3.21066 0,0.0127 0,0.0271 0,0.0398 -0.046,1.103 -0.088,2.27465 -0.1235,3.50057 -0.027,0.91033 -0.049,1.85704 -0.068,2.83446 -0.01,0.27006 -0.011,0.54234 -0.016,0.81751 -0.017,1.0238 -0.031,2.08063 -0.039,3.1745 0,0.2781 0,0.56485 0,0.84748 -0.01,1.1466 -0.01,2.3191 0,3.53931 0,0.003 0,0.003 0,0.004 0.01,0.81862 0.012,1.65325 0.022,2.50476 0.01,0.83732 0.024,1.69166 0.041,2.56056 0,0.0672 0,0.13623 0,0.20359 0.016,0.80225 0.034,1.61706 0.056,2.44586 0,0.10258 0.01,0.20707 0.01,0.31004 0.021,0.78338 0.045,1.57814 0.071,2.38488 0.01,0.16187 0.011,0.32501 0.016,0.48784 0.025,0.73593 0.053,1.48304 0.083,2.23808 0.01,0.234 0.018,0.46802 0.028,0.70384 0.03,0.72697 0.063,1.46437 0.098,2.20867 0.011,0.23468 0.021,0.46738 0.033,0.70382 0.041,0.84806 0.086,1.70756 0.1328,2.57762 0.01,0.11676 0.012,0.23114 0.018,0.3483 0.056,1.02301 0.1165,2.06002 0.1819,3.11297 0.066,1.06829 0.1377,2.15258 0.2139,3.2515 0,0.009 0,0.018 0,0.0274 v 0.006 l 3.1911,31.274067 c 0.2331,1.75455 0.4746,3.52568 0.7322,5.32836 22.26989,-16.77584 92.5737,-73.372187 181.348128,-85.537087 71.866,-9.82689 135.0898,-15.37409 176.9634,-6.11696 -86,-65.47712 -180.783,-75.2974 -180.9461,-75.31425 -1e-4,0 -0.016,0 -0.016,0 z"
         id="path1748-8" />
      <path
         style="opacity:0.33200001;fill:#ffffff;fill-opacity:0.38116593;stroke:none;stroke-width:0.26458332px;stroke-linecap:butt;stroke-linejoin:miter;stroke-opacity:1"
         d="m 223.08227,-16.543527 c -34.2215,0.5194 -74.341,4.88185 -117.5938,10.79624 -81.930528,11.22707 -148.095028,60.27463 -175.321028,80.96147 0.035,0.60376 0.068,1.20169 0.1059,1.81589 0.066,1.06828 0.1377,2.15257 0.2139,3.2515 0,0.009 1e-4,0.018 0,0.0274 v 0.006 l 3.191,31.274017 c 0.2331,1.75455 0.4747,3.52568 0.7323,5.32836 22.26989,-16.77582 92.5737,-73.371987 181.348128,-85.536897 71.8659,-9.8269 135.0897,-15.37412 176.9633,-6.11692 -23.2546,-17.70521 -47.1481,-31.3345 -69.6428,-41.80727 z"
         id="path1748-4-1" />
      <path
         style="fill:#033660;fill-opacity:1;stroke:none;stroke-width:0.26458332px;stroke-linecap:butt;stroke-linejoin:miter;stroke-opacity:1"
         d="m -65.583858,116.91836 163.7302,-58.656297 -37.9914,-13.40239 c 0,0 -60.68250962,19.00129 -125.7388,72.058687 z"
         id="path2193-0" />
      <path
         style="fill:#7b1e0e;fill-opacity:1;stroke:none;stroke-width:0.26458332px;stroke-linecap:butt;stroke-linejoin:miter;stroke-opacity:1"
         d="m 292.72467,25.265003 -143.0769,17.51408 -30.5475,-11.83197 c 0,0 121.0586,-19.40903 173.6244,-5.68211 z"
         id="path2195-9" />
      <path
         style="fill:#99301a;fill-opacity:1;stroke:none;stroke-width:0.26458332px;stroke-linecap:butt;stroke-linejoin:miter;stroke-opacity:1"
         d="m 39.878142,315.81368 c 0,0 51.533,-30.61309 76.977028,-76.63686 l 16.2266,4.98126 c 0,0 -17.7035,32.48456 -93.203628,71.6556"
         id="path2199-3" />
      <path
         style="fill:#005f14;fill-opacity:1;stroke:none;stroke-width:0.26458332px;stroke-linecap:butt;stroke-linejoin:miter;stroke-opacity:1"
         d="m 234.63837,262.6071 c 0,0 -38.8318,-30.91383 -76.9979,-52.05489 0,0 -4.8642,9.72863 -10.664,16.65092 0,0 46.981,9.44285 87.6619,35.40397 z"
         id="path2205-0" />
      <path
         style="opacity:0.43000004;fill:#ffffff;fill-opacity:1;stroke:none;stroke-width:0.42611405px;stroke-linecap:butt;stroke-linejoin:miter;stroke-opacity:1;filter:url(#filter3775)"
         d="m 1011.0757,-764.57968 c 0,0 -83.49631,8.60946 -159.2538,66.28847 0,0 -5.346,26.48621 2.78411,80.29781 l 18.78285,6.52518 c -7.7544,-49.18914 -2.77482,-73.10911 -2.77482,-73.10911 66.81809,-50.87286 140.46166,-58.46672 140.46166,-58.46672 0,0 73.6599,7.59386 140.4778,58.46672 0,0 2.1513,25.06922 0.2826,52.38054 l 17.1323,10.62932 c 4.806,-42.70066 1.3788,-76.72374 1.3788,-76.72374 -75.7577,-57.67901 -159.2715,-66.28847 -159.2715,-66.28847 z m 135.0126,169.66013 c -2.3481,15.1357 -3.907,18.94789 -8.9619,37.90343 0,0 -18.2232,77.44886 -126.0434,135.91468 -87.07361,-47.21624 -115.70774,-106.80377 -123.50515,-127.99009 l -21.13875,-11.26236 c 0.56221,2.20943 1.13766,4.43532 1.7389,6.69002 0,0 20.66144,87.80978 142.906,154.09756 122.2449,-66.28778 142.9065,-154.09756 142.9065,-154.09756 4.327,-16.22587 5.7176,-17.94314 8.2208,-31.73431 z m -279.82346,29.21045 c 1.07344,5.87317 2.29227,11.9756 3.67212,18.29811 z"
         id="path1641-3-3"
         transform="matrix(1.111,0,0,1.111,-1010.3021,802.41921)" />
    </g>
  </g>
</svg>
