<svg width="27" height="28" viewBox="0 0 27 28" fill="none" xmlns="http://www.w3.org/2000/svg">
<path d="M0.0637207 0.474243V4.98601C2.59465 5.30218 4.68089 6.4001 6.67125 7.65695L5.26939 8.79333L11.0344 11.7333L9.4519 5.40198L7.98463 6.59143C6.83907 4.32524 5.56166 2.18875 3.86402 0.474243H0.0637207ZM15.7745 0.474243C14.8895 2.10351 14.1202 3.76654 13.408 5.46745L11.698 5.10461L13.1673 11.4625L16.9656 6.22327L15.2895 5.86756C17.1751 3.89947 19.1183 2.02773 21.4102 0.474243H15.7745ZM26.961 5.78963C24.8093 5.93021 22.8806 6.90414 21.012 8.10657L20.3057 6.26405L15.771 10.9563L22.2333 11.2926L21.4828 9.33493C23.3089 9.28203 25.1349 9.43841 26.961 10.5456V5.78963ZM15.971 13.0413C15.672 13.0481 15.3927 13.1782 15.0116 13.5848L14.6399 13.9795L14.254 13.5988C13.8356 13.1865 13.5054 13.0726 13.1708 13.0874C12.8361 13.1021 12.4426 13.2781 12.0025 13.6343L11.6504 13.9192L11.3158 13.6148C10.8117 13.1587 10.3821 13.0236 9.97062 13.0448C9.6711 13.0604 9.36032 13.1732 9.05021 13.3705L11.3707 17.5443C12.246 18.0796 14.0346 18.281 15.2647 17.6611L17.5073 13.5069C17.082 13.3334 16.6996 13.1556 16.3692 13.0874C16.2496 13.0626 16.1386 13.0446 16.0311 13.0413C16.011 13.0408 15.991 13.0408 15.971 13.0413ZM10.8751 18.4896C9.85354 19.2113 9.03333 20.456 8.71563 22.2791C8.40779 24.0461 8.8928 25.2394 9.75114 26.0528C10.6095 26.8661 11.8979 27.2839 13.2062 27.267C14.5146 27.25 15.8194 26.7963 16.6967 25.9678C17.5741 25.1394 18.0702 23.9613 17.7888 22.2756C17.4979 20.5335 16.7467 19.3219 15.7957 18.5886C14.1824 19.4414 12.1653 19.2601 10.8751 18.4895V18.4896Z" fill="#FE66CB"/>
</svg>
